# xmcd
#
# Track frame offsets: 
#        150
#        20243
#        35305
#        58584
#        73974
#        87123
#        104728
#        123018
#        143179
#        161788
#        183064
#        198028
#        214164
#
# Disc length: 3085 seconds
#
# Revision: 0
# Processed by: cddbd v1.5PL3 Copyright (c) Steve Scherf et al.
# Submitted via: ExactAudioCopy v0.95a5
#
DISCID=b80c0b0d
DTITLE=Andrea Zonn - Love Goes On
DYEAR=2004
DGENRE=
TTITLE0=Better Be Home Soon
TTITLE1=If He's Ever Near
TTITLE2=Love Goes On
TTITLE3=Pages
TTITLE4=Stained Glass Love
TTITLE5=In My Own Backyard
TTITLE6=You Remain
TTITLE7=Galilee Road
TTITLE8=Another Day
TTITLE9=Welcome The Rain
TTITLE10=New Night Dawning
TTITLE11=Weather With You
TTITLE12=Heads Up The Wrecking Ball
EXTD=
EXTT0=
EXTT1=
EXTT2=
EXTT3=
EXTT4=
EXTT5=
EXTT6=
EXTT7=
EXTT8=
EXTT9=
EXTT10=
EXTT11=
EXTT12=
PLAYORDER=
